<?xml version="1.0" standalone="no"?>
<!DOCTYPE svg PUBLIC "-//W3C//DTD SVG 20010904//EN"
 "http://www.w3.org/TR/2001/REC-SVG-20010904/DTD/svg10.dtd">
<svg version="1.0" xmlns="http://www.w3.org/2000/svg"
 width="1620.000000pt" height="1620.000000pt" viewBox="0 0 1620.000000 1620.000000"
 preserveAspectRatio="xMidYMid meet">
<metadata>
Created by potrace 1.11, written by Peter Selinger 2001-2013
</metadata>
<g transform="translate(0.000000,1620.000000) scale(0.100000,-0.100000)"
fill="#000000" stroke="none">
<path d="M8925 10171 c-63 -20 -184 -131 -201 -183 -4 -13 -10 -25 -14 -28
-30 -21 -115 -259 -160 -445 -43 -182 -108 -569 -110 -657 0 -14 -8 -18 -33
-18 -77 0 -451 -82 -653 -144 -27 -8 -98 -29 -159 -46 -60 -18 -127 -39 -148
-46 -67 -25 -70 -23 -63 54 3 37 11 153 17 257 5 105 14 260 18 345 9 164 4
198 -34 230 -24 20 -105 17 -138 -5 -42 -27 -37 16 -77 -630 -12 -187 -25
-343 -29 -348 -4 -4 -54 -23 -112 -43 -127 -44 -155 -58 -196 -97 -28 -26 -33
-38 -33 -75 0 -54 12 -77 50 -97 30 -15 72 -20 83 -9 3 4 49 21 101 40 l96 33
0 -57 c-1 -31 -5 -127 -10 -212 -11 -175 -26 -427 -36 -605 l-6 -121 27 -32
c24 -28 32 -32 79 -32 53 0 88 16 106 49 8 16 45 546 66 958 l7 133 131 41
c72 22 145 45 161 49 17 5 62 18 100 29 39 11 93 25 120 31 28 7 59 15 70 20
11 4 88 22 170 39 83 18 168 36 190 41 22 5 55 12 74 16 l34 6 -7 -108 c-4
-60 -9 -143 -12 -184 -3 -41 -6 -82 -9 -90 -2 -8 -6 -112 -10 -230 -6 -223 5
-447 26 -513 15 -46 70 -112 111 -133 47 -25 140 -34 216 -22 68 11 152 43
152 59 0 5 7 9 15 9 37 0 310 262 536 515 117 130 149 167 199 224 90 104 113
126 106 105 -40 -130 -52 -421 -22 -534 21 -81 76 -164 130 -195 85 -50 244
-40 359 23 134 73 260 248 337 472 12 36 26 74 30 85 5 11 13 40 18 65 6 25
17 68 24 95 8 31 13 120 13 237 1 103 4 190 7 193 3 3 36 -7 74 -22 65 -26 77
-28 224 -28 l155 0 125 43 c69 24 163 62 210 84 47 22 90 41 96 42 6 1 23 10
38 20 15 10 30 15 33 13 4 -5 -51 -573 -78 -809 -13 -114 -8 -157 24 -186 49
-46 105 -28 185 57 23 25 51 55 61 66 15 16 201 253 229 290 4 6 22 28 40 50
18 22 36 45 40 50 12 16 132 168 152 192 10 11 40 47 66 80 209 257 425 439
556 467 25 6 27 4 34 -41 11 -72 -2 -201 -39 -413 -44 -242 -51 -325 -37 -420
12 -86 37 -168 57 -188 7 -7 13 -17 13 -22 0 -16 64 -70 109 -92 38 -19 62
-22 141 -22 52 0 115 6 140 13 51 15 214 92 245 115 11 9 63 48 115 86 52 39
142 114 199 168 96 89 130 118 132 110 0 -2 3 -18 6 -36 12 -87 72 -171 151
-212 47 -25 152 -29 225 -9 42 11 118 46 127 58 3 4 21 17 40 29 89 54 257
255 356 424 38 67 56 85 48 51 -3 -16 -16 -193 -44 -613 -5 -80 -12 -170 -16
-200 -13 -116 -60 -370 -75 -405 -4 -11 -18 -51 -30 -90 -27 -87 -99 -232
-150 -302 -46 -61 -153 -150 -224 -185 -158 -79 -284 -100 -561 -96 l-216 3
-24 -30 c-37 -46 -34 -114 7 -154 46 -46 93 -56 274 -56 170 1 189 3 330 30
142 27 294 88 400 159 65 44 181 163 228 235 74 112 145 273 191 431 41 145
95 603 126 1070 14 223 56 721 84 1005 18 179 20 289 5 317 -21 39 -68 49
-186 38 -108 -9 -165 -21 -186 -38 -7 -5 -24 -12 -39 -16 -42 -10 -187 -112
-262 -184 -158 -154 -312 -374 -455 -649 -114 -220 -516 -643 -726 -764 -102
-59 -154 -79 -210 -79 -83 0 -125 75 -125 221 0 60 4 94 41 324 59 374 39 552
-69 629 -38 27 -48 29 -129 29 -74 -1 -100 -6 -163 -32 -41 -17 -76 -35 -78
-41 -2 -5 -9 -10 -16 -10 -40 0 -329 -255 -426 -376 -14 -17 -49 -60 -78 -95
-30 -35 -59 -71 -65 -79 -86 -108 -137 -171 -162 -201 -29 -34 -76 -94 -102
-128 -6 -9 -14 -14 -16 -11 -3 3 8 131 24 285 16 154 33 325 39 380 5 55 14
143 20 196 10 81 9 102 -4 133 -18 44 -54 60 -116 52 -74 -10 -93 -38 -105
-154 l-10 -97 -85 -51 c-285 -170 -371 -206 -585 -238 -46 -7 -144 14 -213 45
-78 35 -163 119 -199 197 -20 45 -28 53 -46 50 -19 -4 -22 0 -23 34 0 20 -4
41 -8 45 -4 4 -44 8 -89 7 -161 -1 -245 -70 -409 -335 -9 -14 -31 -41 -49 -60
-46 -47 -193 -212 -254 -284 -27 -33 -79 -93 -115 -135 -36 -41 -97 -113 -136
-160 -40 -47 -81 -96 -93 -110 -12 -14 -32 -36 -43 -50 -94 -111 -184 -207
-318 -340 -168 -168 -241 -218 -299 -205 -54 12 -56 27 -55 379 1 390 23 664
95 1166 31 212 87 493 109 545 5 11 21 54 35 95 63 180 141 241 246 192 48
-23 97 -51 115 -67 6 -6 30 -19 53 -29 36 -17 46 -18 81 -6 49 16 70 47 70
102 0 74 -47 122 -176 184 -116 55 -241 78 -309 55z m6053 -643 c-10 -46 -23
-91 -28 -100 -6 -10 -10 -24 -10 -32 0 -29 -117 -359 -160 -451 -10 -22 -35
-74 -54 -115 -129 -274 -276 -447 -410 -481 -60 -15 -91 -1 -107 49 -24 72 10
267 64 371 13 25 30 63 37 85 24 74 184 328 289 458 126 156 293 283 392 297
3 1 -2 -36 -13 -81z m-4639 -547 c28 -51 64 -327 57 -426 -42 -520 -167 -807
-359 -823 -65 -5 -101 19 -118 81 -17 64 -4 223 31 362 31 126 122 407 146
453 8 15 14 32 14 37 0 25 131 245 171 287 24 25 45 47 46 47 1 1 7 -7 12 -18z"/>
<path d="M3455 9784 c-60 -7 -168 -20 -240 -29 -71 -8 -164 -20 -205 -25 -82
-11 -319 -38 -610 -70 -239 -26 -351 -39 -425 -50 -33 -5 -134 -19 -225 -30
-257 -33 -395 -63 -590 -128 -267 -89 -426 -232 -486 -437 -22 -76 -14 -284
14 -390 83 -306 311 -665 609 -956 127 -124 244 -210 365 -268 160 -76 330
-104 376 -61 17 17 22 32 22 75 0 87 -10 94 -235 157 -173 49 -384 209 -551
419 -32 41 -62 76 -66 77 -4 2 -8 8 -8 12 0 5 -20 37 -44 72 -161 230 -268
520 -270 729 -1 101 0 107 28 150 16 24 41 54 55 67 35 31 148 112 156 112 4
0 21 6 38 14 105 47 365 102 742 156 33 5 94 13 135 20 41 6 152 20 245 31
330 39 310 37 705 73 584 55 776 79 808 103 51 38 50 126 0 168 -27 23 -37 25
-131 24 -56 -1 -151 -7 -212 -15z"/>
<path d="M2288 8784 c-52 -27 -46 8 -103 -674 -19 -228 -41 -494 -50 -590 -8
-96 -19 -240 -25 -320 -6 -80 -15 -181 -20 -225 -6 -44 -13 -146 -16 -226 l-7
-145 28 -22 c39 -31 114 -30 151 1 31 27 34 42 59 349 8 106 22 267 31 358 8
91 19 221 24 290 15 199 28 345 54 650 37 426 40 486 26 519 -20 49 -95 66
-152 35z"/>
<path d="M5352 8593 l-84 -4 -41 -43 c-23 -24 -58 -75 -77 -113 -19 -37 -37
-70 -41 -73 -3 -3 -13 -25 -22 -50 -46 -125 -16 -200 81 -200 62 0 89 30 180
200 l29 55 259 8 c142 4 274 5 293 1 l33 -5 -7 -56 c-9 -70 -31 -157 -51 -203
-29 -64 -69 -145 -77 -155 -4 -5 -39 -54 -78 -109 -39 -54 -76 -104 -82 -111
-7 -7 -40 -43 -74 -81 -34 -38 -95 -103 -135 -145 -136 -141 -181 -192 -220
-253 -37 -56 -39 -65 -34 -111 6 -57 43 -156 82 -222 23 -40 108 -147 154
-194 109 -112 427 -310 640 -399 41 -17 84 -35 95 -40 28 -13 171 -57 225 -70
67 -15 268 -40 327 -40 204 0 519 171 578 314 32 77 -13 166 -83 166 -46 0
-77 -20 -160 -101 -61 -60 -155 -117 -217 -134 -81 -21 -230 -19 -340 5 -322
68 -718 272 -917 472 -85 85 -148 181 -148 226 0 11 43 63 98 118 85 85 150
157 240 264 11 14 31 36 42 50 47 54 142 191 191 276 124 215 169 356 169 534
0 119 -14 173 -54 207 l-27 23 -332 -2 c-183 -1 -369 -4 -415 -5z"/>
<path d="M4055 8493 c-238 -28 -418 -163 -462 -345 -19 -82 -13 -208 14 -270
37 -83 101 -160 213 -258 205 -178 282 -274 296 -369 7 -48 -9 -148 -29 -184
-34 -59 -141 -167 -191 -193 -189 -99 -291 -119 -468 -90 -149 24 -202 20
-241 -19 -22 -21 -23 -103 -1 -133 40 -58 188 -88 379 -78 232 12 408 81 561
220 154 139 214 267 214 457 0 175 -82 304 -326 514 -196 169 -259 309 -185
412 16 22 44 49 63 60 37 23 148 53 196 53 57 0 132 22 162 47 26 21 30 32 30
74 0 61 -20 83 -89 98 -51 11 -76 12 -136 4z"/>
</g>
</svg>
